<svg width="30" height="30" viewBox="0 0 30 30" fill="none" xmlns="http://www.w3.org/2000/svg">
<path fill-rule="evenodd" clip-rule="evenodd" d="M0.231491 2.69917C0.231491 2.0447 0.491479 1.41703 0.95426 0.954251C1.41704 0.49147 2.04471 0.231483 2.69918 0.231483H27.2982C27.6225 0.230953 27.9437 0.294401 28.2435 0.418193C28.5433 0.541985 28.8157 0.723691 29.0452 0.952907C29.2747 1.18212 29.4567 1.45435 29.5808 1.754C29.7049 2.05364 29.7687 2.37483 29.7685 2.69917V27.2982C29.7689 27.6226 29.7053 27.9438 29.5813 28.2436C29.4574 28.5434 29.2756 28.8158 29.0462 29.0453C28.8169 29.2747 28.5446 29.4567 28.2449 29.5808C27.9452 29.7049 27.6239 29.7687 27.2995 29.7685H2.69918C2.375 29.7685 2.05401 29.7047 1.75452 29.5806C1.45504 29.4565 1.18295 29.2746 0.953785 29.0453C0.724622 28.816 0.542881 28.5438 0.418947 28.2443C0.295014 27.9447 0.231315 27.6237 0.231491 27.2995V2.69917ZM11.9228 11.4932H15.9224V13.5017C16.4997 12.347 17.9765 11.3079 20.1958 11.3079C24.4505 11.3079 25.4588 13.6077 25.4588 17.8275V25.6441H21.1531V18.7888C21.1531 16.3856 20.5758 15.0295 19.1097 15.0295C17.0757 15.0295 16.2298 16.4916 16.2298 18.7888V25.6441H11.9228V11.4932ZM4.53853 25.4601H8.84557V11.3079H4.53853V25.4588V25.4601ZM9.46182 6.69204C9.46994 7.06081 9.40432 7.42749 9.2688 7.77056C9.13329 8.11363 8.93062 8.42618 8.67268 8.68986C8.41474 8.95354 8.10673 9.16305 7.76673 9.30608C7.42673 9.44911 7.06158 9.52279 6.69272 9.52279C6.32386 9.52279 5.95871 9.44911 5.61871 9.30608C5.2787 9.16305 4.97069 8.95354 4.71275 8.68986C4.45482 8.42618 4.25214 8.11363 4.11663 7.77056C3.98112 7.42749 3.9155 7.06081 3.92362 6.69204C3.93956 5.96819 4.2383 5.27935 4.75587 4.77305C5.27344 4.26675 5.96869 3.98325 6.69272 3.98325C7.41675 3.98325 8.11199 4.26675 8.62956 4.77305C9.14713 5.27935 9.44588 5.96819 9.46182 6.69204V6.69204Z" fill="#467AA9"/>
</svg>
