<svg width="30" height="30" viewBox="0 0 30 30" fill="none" xmlns="http://www.w3.org/2000/svg">
<path d="M28.1818 0.170456H1.81818C1.38118 0.170456 0.962073 0.344055 0.653064 0.653064C0.344055 0.962073 0.170456 1.38118 0.170456 1.81818V28.1818C0.170456 28.6188 0.344055 29.0379 0.653064 29.3469C0.962073 29.6559 1.38118 29.8295 1.81818 29.8295H28.1818C28.6188 29.8295 29.0379 29.6559 29.3469 29.3469C29.6559 29.0379 29.8295 28.6188 29.8295 28.1818V1.81818C29.8295 1.38118 29.6559 0.962073 29.3469 0.653064C29.0379 0.344055 28.6188 0.170456 28.1818 0.170456V0.170456ZM24.8106 7.19801L23.2189 8.72216C23.1516 8.77344 23.0998 8.84221 23.069 8.92096C23.0382 8.99971 23.0296 9.08541 23.0442 9.1687V20.3749C23.0296 20.4582 23.0382 20.5439 23.069 20.6226C23.0998 20.7014 23.1516 20.7701 23.2189 20.8214L24.771 22.3472V22.6834H16.9591V22.3472L18.569 20.7852C18.7288 20.627 18.7288 20.5792 18.7288 20.3386V11.2794L14.2536 22.6422H13.6472L8.43875 11.2794V18.8952C8.41818 19.0535 8.43358 19.2143 8.48379 19.3658C8.534 19.5173 8.61773 19.6555 8.72875 19.7702L10.823 22.3093V22.6438H4.8846V22.3093L6.97886 19.7702C7.0891 19.6556 7.17095 19.5167 7.21788 19.3648C7.2648 19.2129 7.27549 19.052 7.24909 18.8952V10.0898C7.26141 9.96924 7.24516 9.8475 7.20164 9.73442C7.15813 9.62134 7.08858 9.5201 6.99864 9.43892L5.13671 7.19801V6.86352H10.9136L15.379 16.656L19.3039 6.86352H24.8122V7.19801H24.8106Z" fill="#467AA9"/>
</svg>
