<svg width="30" height="30" viewBox="0 0 30 30" fill="none" xmlns="http://www.w3.org/2000/svg">
<path d="M26.6544 0.360577H3.19853C1.43267 0.360577 0 1.7657 0 3.4976V26.5024C0 28.2343 1.43267 29.6394 3.19853 29.6394H26.6544C28.4203 29.6394 29.8529 28.2343 29.8529 26.5024V3.4976C29.8529 1.7657 28.4203 0.360577 26.6544 0.360577ZM23.3959 10.7389C23.4092 10.9219 23.4092 11.1114 23.4092 11.2944C23.4092 16.9606 19.0113 23.4896 10.975 23.4896C8.49609 23.4896 6.19715 22.7837 4.26471 21.5681C4.61788 21.6074 4.95772 21.6204 5.31756 21.6204C7.36328 21.6204 9.24242 20.9407 10.7417 19.7905C8.82261 19.7513 7.21002 18.5161 6.65694 16.8169C7.32996 16.9149 7.93635 16.9149 8.62937 16.7384C6.63028 16.3398 5.13097 14.6144 5.13097 12.5296V12.4773C5.71071 12.7976 6.39039 12.9936 7.1034 13.0198C6.50396 12.6287 6.01256 12.0982 5.67304 11.4755C5.33352 10.8529 5.15645 10.1575 5.15763 9.4514C5.15763 8.65407 5.37086 7.9221 5.75069 7.28816C7.90303 9.88927 11.1349 11.5885 14.7599 11.7715C14.1402 8.86321 16.3591 6.50391 19.0246 6.50391C20.284 6.50391 21.4168 7.02021 22.2165 7.85675C23.2027 7.67375 24.1489 7.3143 24.9885 6.82414C24.662 7.81753 23.9756 8.65407 23.0694 9.18344C23.949 9.09195 24.8019 8.85014 25.5882 8.51683C24.9952 9.37297 24.2489 10.1311 23.3959 10.7389Z" fill="#467AA9"/>
</svg>
