<svg width="51" height="51" viewBox="0 0 51 51" fill="none" xmlns="http://www.w3.org/2000/svg">
<path d="M25.125 0.125C11.3192 0.125 0.125 11.3192 0.125 25.125C0.125 38.9308 11.3192 50.125 25.125 50.125C38.9308 50.125 50.125 38.9308 50.125 25.125C50.125 11.3192 38.9308 0.125 25.125 0.125ZM37.1395 18.9699C37.1562 19.2321 37.1562 19.5056 37.1562 19.7734C37.1562 27.9654 30.9174 37.4018 19.5167 37.4018C16.0011 37.4018 12.7422 36.3806 9.99665 34.6228C10.4989 34.6786 10.9788 34.7009 11.4922 34.7009C14.394 34.7009 17.0614 33.7188 19.1875 32.0558C16.4643 32 14.1763 30.2143 13.3951 27.7589C14.3493 27.8984 15.2087 27.8984 16.1908 27.6473C14.7887 27.3624 13.5283 26.6009 12.624 25.4921C11.7196 24.3833 11.227 22.9956 11.2299 21.5647V21.4866C12.0502 21.9498 13.0156 22.2344 14.0257 22.2734C13.1766 21.7076 12.4802 20.9409 11.9984 20.0415C11.5165 19.142 11.2641 18.1376 11.2634 17.1172C11.2634 15.9621 11.5647 14.9074 12.106 13.9922C13.6624 15.9081 15.6045 17.4751 17.8062 18.5913C20.0078 19.7075 22.4197 20.348 24.885 20.471C24.0089 16.2578 27.1563 12.8482 30.9397 12.8482C32.7254 12.8482 34.3326 13.596 35.4654 14.8013C36.8661 14.5391 38.2054 14.0145 39.3996 13.3114C38.9364 14.7455 37.9654 15.9565 36.6763 16.721C37.9263 16.5871 39.1317 16.2411 40.2478 15.7556C39.4051 16.9944 38.3504 18.0938 37.1395 18.9699V18.9699Z" fill="#467AA9"/>
</svg>
