<svg width="60" height="60" viewBox="0 0 60 60" fill="none" xmlns="http://www.w3.org/2000/svg">
<circle cx="30" cy="30" r="30" fill="white"/>
<path d="M30.2324 20.2368L27.6201 40H19.8198L16.8535 20.2368H22.2734C22.9001 25.6812 23.3477 30.2832 23.6162 34.043C23.8848 30.2425 24.1655 26.8652 24.4585 23.9111L24.8125 20.2368H30.2324ZM42 26.2183H37.2271V24.7534C37.2271 24.0698 37.166 23.6344 37.0439 23.4473C36.9219 23.2601 36.7184 23.1665 36.4336 23.1665C36.1243 23.1665 35.8883 23.2926 35.7256 23.5449C35.571 23.7972 35.4937 24.1797 35.4937 24.6924C35.4937 25.3516 35.5832 25.848 35.7622 26.1816C35.9331 26.5153 36.4173 26.9181 37.2148 27.3901C39.5016 28.7492 40.9421 29.8641 41.5361 30.7349C42.1302 31.6056 42.4272 33.0094 42.4272 34.9463C42.4272 36.3542 42.2604 37.3918 41.9268 38.0591C41.6012 38.7264 40.9665 39.2879 40.0225 39.7437C39.0785 40.1912 37.9798 40.415 36.7266 40.415C35.3512 40.415 34.1753 40.1546 33.1987 39.6338C32.2303 39.113 31.5955 38.4497 31.2944 37.644C30.9933 36.8384 30.8428 35.695 30.8428 34.2139V32.9199H35.6157V35.3247C35.6157 36.0653 35.6808 36.5413 35.811 36.7529C35.9494 36.9645 36.1895 37.0703 36.5312 37.0703C36.873 37.0703 37.1253 36.936 37.2881 36.6675C37.459 36.3989 37.5444 36.0002 37.5444 35.4712C37.5444 34.3075 37.3857 33.5465 37.0684 33.1885C36.7428 32.8304 35.9412 32.2323 34.6636 31.394C33.3859 30.5477 32.5396 29.9333 32.1245 29.5508C31.7095 29.1683 31.3636 28.6393 31.0869 27.9639C30.8184 27.2884 30.6841 26.4258 30.6841 25.376C30.6841 23.8623 30.8753 22.7555 31.2578 22.0557C31.6484 21.3558 32.2751 20.8105 33.1377 20.4199C34.0003 20.0212 35.042 19.8218 36.2627 19.8218C37.5973 19.8218 38.7326 20.0374 39.6685 20.4688C40.6125 20.9001 41.235 21.4453 41.5361 22.1045C41.8454 22.7555 42 23.8664 42 25.437V26.2183Z" fill="#00558C"/>
</svg>
